<?xml version="1.0" encoding="UTF-8" standalone="no"?>
<svg
   xmlns:dc="http://purl.org/dc/elements/1.1/"
   xmlns:cc="http://creativecommons.org/ns#"
   xmlns:rdf="http://www.w3.org/1999/02/22-rdf-syntax-ns#"
   xmlns:svg="http://www.w3.org/2000/svg"
   xmlns="http://www.w3.org/2000/svg"
   xmlns:sodipodi="http://sodipodi.sourceforge.net/DTD/sodipodi-0.dtd"
   xmlns:inkscape="http://www.inkscape.org/namespaces/inkscape"
   viewBox="0 0 512 512"
   version="1.1"
   id="svg8"
   sodipodi:docname="patchichi.svg"
   inkscape:version="1.0.2 (e86c870879, 2021-01-15)"
   width="512"
   height="512">
  <metadata
     id="metadata12">
    <rdf:RDF>
      <cc:Work
         rdf:about="">
        <dc:format>image/svg+xml</dc:format>
        <dc:type
           rdf:resource="http://purl.org/dc/dcmitype/StillImage" />
        <dc:title />
      </cc:Work>
    </rdf:RDF>
  </metadata>
  <sodipodi:namedview
     pagecolor="#ffffff"
     bordercolor="#666666"
     borderopacity="1"
     objecttolerance="10"
     gridtolerance="10"
     guidetolerance="10"
     inkscape:pageopacity="0"
     inkscape:pageshadow="2"
     inkscape:window-width="1392"
     inkscape:window-height="871"
     id="namedview10"
     showgrid="false"
     inkscape:zoom="0.98746357"
     inkscape:cx="203.39892"
     inkscape:cy="210.88049"
     inkscape:window-x="48"
     inkscape:window-y="0"
     inkscape:window-maximized="1"
     inkscape:current-layer="svg8"
     inkscape:document-rotation="0" />
  <defs
     id="defs3051">
    <style
       type="text/css"
       id="current-color-scheme">
      .ColorScheme-Text {
        color:#4d4d4d;
      }
      .ColorScheme-Highlight {
        color:#3daee9;
      }
      </style>
  </defs>
  <rect
     style="fill:#4e2b10;fill-opacity:1;stroke:#edc7a9;stroke-width:10.7357;stroke-linejoin:bevel;stroke-miterlimit:4;stroke-dasharray:none;stroke-opacity:0.618256"
     id="rect839"
     width="372.8154"
     height="370.40051"
     x="175.63097"
     y="-185.20026"
     ry="44.375084"
     transform="rotate(45)" />
  <path
     style="fill:#170d04;fill-opacity:1;stroke:none;stroke-width:27.0306"
     d="m 350.60748,134.36179 a 67.576613,67.577121 0 0 1 67.57679,67.57679 67.576613,67.577121 0 0 1 -67.57679,67.57677 l -189.21498,10e-6 a 40.54597,40.546272 0 0 0 -40.54605,40.54604 40.54597,40.546272 0 0 0 40.54603,40.54611 l 202.73037,-10e-6 v 27.03071 l -202.73033,-2e-5 A 67.576613,67.577121 0 0 1 93.815727,310.0614 67.576613,67.577121 0 0 1 161.39248,242.48465 l 189.215,-10e-6 a 40.54597,40.546272 0 0 0 40.54607,-40.54607 40.54597,40.546272 0 0 0 -40.54607,-40.54607 l -202.73033,10e-6 -1e-5,-27.03072 z"
     class="ColorScheme-Text"
     id="path4" />
  <path
     style="fill:#bb6724;fill-opacity:1;stroke:none;stroke-width:27.0306"
     d="m 134.36179,107.33109 a 40.54607,40.54607 0 0 1 40.54608,40.54606 40.54607,40.54607 0 0 1 -40.54608,40.54608 40.54607,40.54607 0 0 1 -40.546068,-40.54607 40.54607,40.54607 0 0 1 40.546068,-40.54607 z m 0,27.03071 a 13.515363,13.515384 0 0 0 -13.51535,13.51535 13.515363,13.515384 0 0 0 13.51536,13.51537 13.515363,13.515384 0 0 0 13.51536,-13.51536 13.515363,13.515384 0 0 0 -13.51537,-13.51536 z M 377.6382,323.57677 a 40.54607,40.54607 0 0 1 40.54608,40.54609 40.54607,40.54607 0 0 1 -40.54607,40.54606 40.54607,40.54607 0 0 1 -40.54608,-40.54609 40.54607,40.54607 0 0 1 40.54607,-40.54606 z m 0,27.03072 a 13.515363,13.515384 0 0 0 -13.51535,13.51535 13.515363,13.515384 0 0 0 13.51536,13.51537 13.515363,13.515384 0 0 0 13.51535,-13.51535 13.515363,13.515384 0 0 0 -13.51536,-13.51537 z"
     class="ColorScheme-Highlight"
     id="path6" />
</svg>
